<svg width="10" height="21" viewBox="0 0 10 21" fill="none" xmlns="http://www.w3.org/2000/svg">
<path d="M0.661364 16.2535C0.0861832 16.4947 -0.154836 17.1812 0.104738 17.7378L1.01389 19.6302C1.27365 20.1683 1.9045 20.4095 2.46112 20.1683C4.01968 19.5003 5.35577 18.6283 6.45028 17.5892C7.76782 16.3275 8.67679 14.8989 9.15938 13.3217C9.64179 11.7634 9.88281 9.59235 9.88281 6.80922L9.88281 1.11307C9.88281 0.50078 9.38185 -0.000183062 8.76956 -0.000183008L1.47775 -0.000182371C0.86546 -0.000182317 0.364495 0.500781 0.364496 1.11307L0.364496 8.40488C0.364496 9.01736 0.86546 9.51813 1.47775 9.51813L4.9845 9.51813C4.94739 11.3923 4.5019 12.895 3.6857 14.027C3.01775 14.936 2.01582 15.6781 0.661364 16.2535Z" fill="white"/>
</svg>
