<svg width="48" height="48" viewBox="0 0 48 48" fill="none" xmlns="http://www.w3.org/2000/svg">
<path d="M35.0443 18.0544L35.0435 18.0342C35.0322 17.7844 35.0246 17.5202 35.0201 17.2262C34.9988 15.7927 33.8592 14.6069 32.4255 14.5267C29.4361 14.3599 27.1236 13.3851 25.1477 11.4592L25.1308 11.4431C24.4863 10.8522 23.5142 10.8522 22.8695 11.4431L22.8526 11.4592C20.8767 13.3851 18.5642 14.3599 15.5749 14.5269C14.1413 14.6069 13.0015 15.7927 12.9803 17.2264C12.9759 17.5184 12.9682 17.7827 12.9569 18.0342L12.9557 18.0812C12.8975 21.1294 12.8253 24.9232 14.0945 28.3665C14.7923 30.2601 15.8492 31.9061 17.2356 33.2592C18.8145 34.8001 20.8827 36.0234 23.3825 36.895C23.4638 36.9234 23.5483 36.9464 23.6344 36.9636C23.7558 36.9878 23.878 36.9999 24.0002 36.9999C24.1223 36.9999 24.2447 36.9878 24.3659 36.9636C24.452 36.9464 24.5371 36.9232 24.6189 36.8946C27.1157 36.0214 29.1816 34.7975 30.7592 33.2568C32.145 31.9034 33.2019 30.257 33.9003 28.363C35.1742 24.9093 35.1022 21.1084 35.0443 18.0544ZM32.4689 27.8351C31.1303 31.4644 28.3979 33.9568 24.1154 35.4545C24.1001 35.4596 24.0839 35.4642 24.067 35.4676C24.0228 35.4763 23.9777 35.4763 23.9329 35.4674C23.9162 35.464 23.9 35.4596 23.8849 35.4545C19.5979 33.9596 16.8636 31.4686 15.5261 27.8391C14.3563 24.6651 14.4226 21.1826 14.4811 18.1104L14.4815 18.0933C14.4934 17.8293 14.5013 17.5528 14.5057 17.2489C14.5152 16.6123 15.0222 16.0857 15.66 16.0501C17.3516 15.9557 18.8377 15.6288 20.2033 15.0508C21.567 14.4736 22.7782 13.6599 23.9057 12.5633C23.9631 12.5149 24.0374 12.5147 24.0946 12.5633C25.2223 13.6599 26.4335 14.4736 27.797 15.0508C29.1626 15.6288 30.6487 15.9557 32.3406 16.0501C32.9783 16.0857 33.4853 16.6123 33.4946 17.2491C33.4992 17.5545 33.5071 17.8311 33.519 18.0933C33.5774 21.1691 33.642 24.6544 32.4689 27.8351Z" fill="#8C0014"/>
<path d="M24.0001 17.5208C20.4271 17.5208 17.5205 20.4277 17.5205 24.0004C17.5205 27.5733 20.4271 30.4802 24.0001 30.4802C27.5728 30.4802 30.4796 27.5733 30.4796 24.0004C30.4796 20.4277 27.5728 17.5208 24.0001 17.5208ZM24.0001 28.9543C21.2684 28.9543 19.0461 26.7321 19.0461 24.0004C19.0461 21.2687 21.2684 19.0464 24.0001 19.0464C26.7316 19.0464 28.9538 21.2687 28.9538 24.0004C28.9538 26.7321 26.7316 28.9543 24.0001 28.9543Z" fill="#8C0014"/>
<path d="M25.8621 21.9888L22.8525 24.9984L22.0356 24.1815C21.7377 23.8836 21.2547 23.8836 20.9567 24.1815C20.659 24.4794 20.659 24.9625 20.9567 25.2602L22.3131 26.6166C22.4621 26.7656 22.6573 26.84 22.8525 26.84C23.0477 26.84 23.2429 26.7656 23.3918 26.6166L26.941 23.0675C27.2387 22.7695 27.2387 22.2865 26.941 21.9888C26.643 21.6906 26.16 21.6906 25.8621 21.9888Z" fill="#8C0014"/>
<circle cx="24" cy="24" r="23.5" stroke="#E2DEDE"/>
</svg>
