<svg width="48" height="48" viewBox="0 0 48 48" fill="none" xmlns="http://www.w3.org/2000/svg">
<circle cx="24" cy="24" r="23.5" stroke="#E2DEDE"/>
<path d="M25.3634 24.7879C28.0619 24.7879 30.2573 22.5925 30.2573 19.8939C30.2573 17.1954 28.0619 15 25.3634 15C25.3529 15 25.3424 15.0002 25.332 15.0006H21.3342C21.3338 15.0006 21.3335 15.0005 21.3332 15.0005C20.8562 15.0005 20.4695 15.3872 20.4695 15.8642V15.8642V23.9242V26.5152H19.6058C19.1289 26.5152 18.7422 26.9018 18.7422 27.3788C18.7422 27.8557 19.1289 28.2424 19.6058 28.2424H20.4695V33.1364C20.4695 33.6133 20.8561 34 21.3331 34C21.8101 34 22.1967 33.6133 22.1967 33.1364V28.2424H25.3634C25.8404 28.2424 26.227 27.8557 26.227 27.3788C26.227 26.9018 25.8404 26.5152 25.3634 26.5152H22.1967V24.7879H25.3634ZM25.3634 16.7278C25.3727 16.7278 25.3821 16.7277 25.3913 16.7274C27.1246 16.7424 28.5301 18.1571 28.5301 19.8939C28.5301 21.64 27.1095 23.0606 25.3634 23.0606H22.1967V16.7278H25.3634Z" fill="#8C0014"/>
</svg>
